<?xml version="1.0" standalone="no"?>
<!DOCTYPE svg PUBLIC "-//W3C//DTD SVG 20010904//EN"
 "http://www.w3.org/TR/2001/REC-SVG-20010904/DTD/svg10.dtd">
<svg version="1.0" xmlns="http://www.w3.org/2000/svg"
 width="170.000000pt" height="161.000000pt" viewBox="0 0 170.000000 161.000000"
 preserveAspectRatio="xMidYMid meet">

<g transform="translate(0.000000,161.000000) scale(0.100000,-0.100000)"
fill="#000000" stroke="none">
<path d="M900 1398 c0 -177 0 -181 19 -164 16 14 20 38 26 142 4 68 11 124 15
124 9 0 20 -111 20 -202 0 -39 4 -68 10 -68 6 0 10 45 10 115 0 96 3 115 15
115 13 0 15 -22 16 -132 1 -73 3 -125 6 -115 2 9 9 17 14 17 5 0 9 45 9 100 0
82 3 100 15 100 12 0 15 -18 15 -105 0 -103 0 -105 19 -86 15 15 21 40 26 118
l7 98 -114 63 c-63 34 -117 62 -121 62 -4 0 -7 -82 -7 -182z"/>
<path d="M641 1180 c-1 -70 1 -76 24 -87 l25 -11 0 79 c0 43 -4 79 -9 79 -5 0
-11 -8 -14 -17 -3 -15 -6 -14 -15 7 -9 21 -11 13 -11 -50z"/>
<path d="M722 1159 c-2 -78 1 -98 13 -103 13 -5 15 10 14 97 -1 68 -4 90 -9
67 l-7 -35 -5 35 c-2 19 -6 -8 -6 -61z"/>
<path d="M771 1039 c-1 -212 3 -239 32 -239 10 0 1 430 -9 439 -2 2 -4 -4 -5
-15 -1 -15 -3 -13 -9 6 -5 14 -8 -67 -9 -191z"/>
<path d="M830 1012 c0 -198 3 -246 14 -258 34 -33 36 -17 36 239 -1 222 -3
248 -15 222 -11 -24 -14 -26 -14 -10 -1 11 -6 27 -11 35 -6 10 -10 -67 -10
-228z"/>
<path d="M538 1048 c-26 -9 -28 -14 -28 -66 l0 -56 29 28 c28 27 30 27 55 11
38 -25 33 -1 -8 40 -31 31 -33 36 -18 44 22 13 5 12 -30 -1z"/>
<path d="M1240 1041 c0 -5 6 -12 13 -15 6 -3 1 -3 -12 0 -13 3 -26 2 -30 -3
-3 -5 -15 -16 -26 -24 -19 -13 -18 -16 33 -63 l52 -49 0 75 c0 58 -4 77 -15
82 -8 3 -15 1 -15 -3z"/>
<path d="M253 721 c1 -53 0 -55 -52 -102 -29 -26 -49 -49 -44 -51 4 -3 25 -6
47 -7 36 -2 44 4 135 95 53 54 87 91 76 82 -11 -8 -25 -13 -32 -11 -6 2 -14
-1 -18 -6 -4 -7 1 -9 12 -5 15 5 15 4 3 -4 -16 -12 -33 -6 -25 9 4 5 1 9 -5 9
-6 0 -8 5 -4 13 6 9 5 9 -8 0 -8 -7 -18 -10 -21 -6 -4 3 -7 2 -7 -4 0 -6 -10
-13 -22 -16 -23 -6 -23 -6 -3 10 20 15 20 15 -2 9 -17 -6 -22 -2 -26 16 -3 13
-5 -1 -4 -31z"/>
<path d="M1025 750 c-10 -11 -30 -20 -44 -20 -20 0 -23 -2 -11 -10 9 -6 10
-10 3 -10 -6 0 -15 5 -18 10 -4 7 -12 7 -25 0 -13 -7 -21 -7 -25 0 -10 16 -25
1 -18 -18 5 -11 -8 -5 -35 16 -38 30 -59 33 -31 5 14 -14 -8 -13 -30 1 -10 7
-12 6 -6 -4 6 -10 4 -11 -6 -4 -8 4 -20 9 -28 11 -8 1 -18 7 -22 15 -4 7 -10
10 -14 7 -6 -7 141 -149 154 -149 10 0 189 169 180 170 -3 0 -14 -9 -24 -20z"/>
<path d="M1408 763 c7 -3 16 -2 19 1 4 3 -2 6 -13 5 -11 0 -14 -3 -6 -6z"/>
<path d="M920 745 c-7 -9 -11 -17 -9 -20 3 -2 10 5 17 15 14 24 10 26 -8 5z"/>
<path d="M1401 657 c79 -79 101 -97 126 -97 16 0 33 3 36 7 4 3 -17 28 -46 54
-49 44 -53 50 -49 84 3 27 1 36 -7 31 -6 -4 -9 -11 -6 -16 3 -4 -3 -7 -12 -5
-10 2 -21 4 -25 4 -5 1 -8 9 -9 19 0 10 -3 12 -6 4 -2 -6 -10 -9 -16 -5 -6 4
-8 0 -4 -10 5 -14 3 -15 -21 -5 -15 7 -34 16 -42 22 -8 5 28 -34 81 -87z"/>
<path d="M46 586 c-6 -31 -3 -48 16 -85 58 -112 289 -164 582 -131 157 18 472
70 404 67 -32 -1 -44 1 -37 8 5 5 23 11 40 11 16 1 39 2 52 4 20 2 19 3 -6 10
-18 6 -44 4 -73 -5 -24 -7 -41 -9 -38 -4 7 13 -20 11 -101 -6 -38 -9 -101 -18
-139 -20 -37 -3 -72 -7 -76 -10 -18 -11 -233 -16 -320 -6 -182 19 -272 69
-288 161 l-8 45 -8 -39z m934 -151 c0 -2 -6 -5 -13 -8 -8 -3 -14 1 -14 8 0 7
6 11 14 8 7 -3 13 -6 13 -8z"/>
<path d="M827 585 c10 -13 22 -25 27 -25 5 0 -1 11 -14 25 -30 32 -36 32 -13
0z"/>
<path d="M1408 599 c19 -25 -6 -31 -123 -33 -55 0 -106 -5 -112 -9 -8 -5 -13
-4 -13 2 0 6 -5 11 -11 11 -5 0 -8 -3 -6 -7 3 -5 -39 -8 -92 -8 -70 0 -103 4
-115 14 -13 11 -16 11 -14 2 2 -8 -5 -15 -15 -16 -15 -3 -16 -1 -6 11 16 20
-3 17 -27 -3 -14 -14 -37 -18 -89 -18 -38 0 -168 -4 -288 -7 -119 -4 -217 -4
-217 0 0 5 6 14 12 22 11 12 10 12 -4 1 -12 -9 -18 -27 -18 -56 l0 -43 67 -8
c95 -10 304 1 468 26 257 38 299 42 420 43 66 1 148 -2 183 -6 60 -8 62 -7 61
15 0 14 -15 35 -37 53 -20 16 -31 23 -24 14z"/>
<path d="M745 359 c-49 -5 -94 -11 -100 -14 -15 -7 224 6 270 15 37 7 36 8
-20 7 -33 0 -100 -4 -150 -8z"/>
<path d="M1143 280 c-27 -11 -45 -44 -41 -73 4 -28 61 -66 111 -74 45 -7 57
-26 32 -53 -24 -27 -51 -25 -81 5 -30 30 -64 33 -64 7 0 -29 44 -63 90 -69 51
-7 105 17 114 51 17 63 -1 86 -86 111 -60 17 -79 38 -48 55 29 15 51 12 76
-11 24 -22 54 -20 54 4 0 40 -102 71 -157 47z"/>
<path d="M490 191 c0 -80 3 -93 23 -117 19 -21 32 -27 67 -27 35 0 48 6 67 27
20 24 23 37 23 117 0 82 -1 89 -20 89 -18 0 -20 -7 -20 -83 0 -69 -3 -87 -18
-100 -24 -22 -38 -21 -62 3 -17 17 -20 33 -20 100 0 73 -2 80 -20 80 -19 0
-20 -7 -20 -89z"/>
<path d="M742 176 c-37 -121 -39 -136 -13 -136 20 0 31 18 31 51 0 17 6 20 42
17 38 -3 43 -6 50 -36 7 -27 13 -33 31 -30 26 4 27 -2 -14 131 -33 106 -33
107 -64 107 -31 0 -32 -1 -63 -104z m82 2 c7 -36 5 -38 -19 -38 -29 0 -31 13
-14 75 13 44 19 36 33 -37z"/>
<path d="M910 260 c0 -16 7 -20 30 -20 l30 0 0 -101 c0 -98 0 -100 23 -97 21
3 22 8 25 101 l3 97 29 0 c23 0 30 4 30 20 0 18 -7 20 -85 20 -78 0 -85 -2
-85 -20z"/>
</g>
</svg>
